#!OML:ASF G:\JayActor3\Patient Classification 1\Patient 1\Session 5\male.ASF
:FULLY-SPECIFIED
:DEGREES
813
root -23.0866 18.0797 -4.02784 105.918 94.4052 104.527
lowerback 4.98776 -0.791355 6.28622
upperback 0.393023 -0.683931 0.140404
thorax -2.46684 -0.400111 -3.33527
lowerneck -5.99736 0.700488 2.27857
upperneck 11.2905 0.679078 1.00468
head 4.84903 0.525754 -0.0206007
rclavicle 1.44119e-015 -1.15295e-014
rhumerus -35.049 -6.20047 -85.5451
rradius 26.3612
rwrist 2.08817
rhand -21.9175 -10.3877
rfingers 7.12502
rthumb 4.48841 -40.3201
lclavicle 1.44119e-015 -1.15295e-014
lhumerus -36.7525 10.1717 79.3942
lradius 22.4682
lwrist 16.183
lhand -17.4626 11.5587
lfingers 7.12502
lthumb 8.78892 41.3557
rfemur 5.67134 2.79856 27.1478
rtibia 20.8836
rfoot 4.73897 -7.15135
rtoes -9.93513
lfemur -22.3634 6.46858 -14.8337
ltibia 17.1797
lfoot 23.2865 -0.214454
ltoes -12.6557
814
root -23.1965 18.0726 -4.00058 101.484 94.3492 100.181
lowerback 5.03825 -0.868585 6.20877
upperback 0.426757 -0.787338 0.165734
thorax -2.46957 -0.449689 -3.25761
lowerneck -5.95719 0.658844 2.24815
upperneck 11.2921 0.621582 1.0616
head 4.84046 0.499548 0.000669985
rclavicle -1.50331e-015 -1.19271e-015
rhumerus -35.2148 -6.18426 -85.4824
rradius 26.4065
rwrist 2.00784
rhand -21.8908 -10.4038
rfingers 7.12502
rthumb 4.51425 -40.3357
lclavicle -1.50331e-015 -1.19271e-015
lhumerus -36.8007 10.1556 79.3382
lradius 22.3522
lwrist 16.0577
lhand -17.3765 11.5944
lfingers 7.12502
lthumb 8.87207 41.3879
rfemur 5.04541 2.66945 27.3751
rtibia 21.605
rfoot 4.157 -7.38779
rtoes -10.0365
lfemur -22.1918 6.51748 -14.9061
ltibia 17.2681
lfoot 21.5778 -0.412554
ltoes -13.0227
815
root -23.3041 18.064 -3.97377 97.4169 94.3045 96.2257
lowerback 5.11039 -0.933042 6.10831
upperback 0.457528 -0.873707 0.184008
thorax -2.48517 -0.491073 -3.17525
lowerneck -5.90986 0.618909 2.21818
upperneck 11.2999 0.566852 1.11729
head 4.8328 0.474794 0.0216253
rclavicle -9.98893e-015 -1.17283e-014
rhumerus -35.3822 -6.21894 -85.3959
rradius 26.3963
rwrist 2.00024
rhand -21.88 -10.4217
rfingers 7.12502
rthumb 4.52468 -40.3533
lclavicle -9.98893e-015 -1.17283e-014
lhumerus -36.8604 10.1537 79.2626
lradius 22.2258
lwrist 15.9341
lhand -17.2734 11.6221
lfingers 7.12502
lthumb 8.97157 41.4113
rfemur 4.40612 2.57172 27.5817
rtibia 22.3989
rfoot 3.59033 -7.63657
rtoes -10.0659
lfemur -21.9437 6.54674 -14.9871
ltibia 17.4261
lfoot 19.6715 -0.58195
ltoes -13.5582
816
root -23.4092 18.0552 -3.9481 93.7967 94.2717 92.7282
lowerback 5.18197 -0.98721 5.99808
upperback 0.491402 -0.947339 0.198312
thorax -2.49553 -0.525833 -3.09239
lowerneck -5.88114 0.584541 2.18942
upperneck 11.322 0.51983 1.16359
head 4.83442 0.453599 0.0397758
rclavicle 4.47266e-016 -4.37326e-015
rhumerus -35.5317 -6.29577 -85.2858
rradius 26.3276
rwrist 2.07276
rhand -21.8673 -10.433
rfingers 7.12502
rthumb 4.53694 -40.3644
lclavicle 4.47266e-016 -4.37326e-015
lhumerus -36.9154 10.2027 79.1607
lradius 22.0815
lwrist 15.793
lhand -17.1678 11.6519
lfingers 7.12502
lthumb 9.07344 41.4368
rfemur 3.76553 2.4951 27.7636
rtibia 23.2167
rfoot 3.06052 -7.88851
rtoes -9.92396
lfemur -21.6568 6.55033 -15.0688
ltibia 17.7016
lfoot 17.66 -0.708426
ltoes -14.2702
817
root -23.5115 18.0471 -3.92393 90.6996 94.2496 89.7567
lowerback 5.25105 -1.02766 5.89675
upperback 0.516731 -1.00262 0.202972
thorax -2.51159 -0.55203 -3.02578
lowerneck -5.85723 0.550882 2.16131
upperneck 11.3639 0.473652 1.20971
head 4.84443 0.43325 0.0579307
rclavicle -3.35449e-015 3.97569e-016
rhumerus -35.6838 -6.42582 -85.1545
rradius 26.2058
rwrist 2.22015
rhand -21.8441 -10.4373
rfingers 7.12502
rthumb 4.55931 -40.3683
lclavicle -3.35449e-015 3.97569e-016
lhumerus -36.9967 10.2646 79.0331
lradius 21.9404
lwrist 15.6469
lhand -17.0668 11.6798
lfingers 7.12502
lthumb 9.17084 41.4604
rfemur 3.1394 2.43774 27.9211
rtibia 24.0145
rfoot 2.59654 -8.11695
rtoes -9.7157
lfemur -21.3641 6.53926 -15.1465
ltibia 18.1415
lfoot 15.6578 -0.837965
ltoes -15.2231
818
root -23.6113 18.0406 -3.90148 88.1704 94.2325 87.3458
lowerback 5.29674 -1.05562 5.80414
upperback 0.543298 -1.04281 0.201502
thorax -2.51189 -0.570425 -2.97185
lowerneck -5.85378 0.520488 2.13137
upperneck 11.4171 0.431789 1.25077
head 4.86295 0.414851 0.0750792
rclavicle -7.67806e-015 3.37934e-015
rhumerus -35.8148 -6.59384 -85.0065
rradius 26.0348
rwrist 2.41878
rhand -21.8152 -10.4384
rfingers 7.12502
rthumb 4.58721 -40.3687
lclavicle -7.67806e-015 3.37934e-015
lhumerus -37.079 10.3722 78.8792
lradius 21.7906
lwrist 15.4811
lhand -16.9883 11.7037
lfingers 7.12502
lthumb 9.2466 41.481
rfemur 2.53248 2.39831 28.0509
rtibia 24.762
rfoot 2.21407 -8.30884
rtoes -9.4964
lfemur -21.0954 6.53554 -15.2257
ltibia 18.7794
lfoot 13.769 -0.959758
ltoes -16.2683
819
root -23.7091 18.0361 -3.88081 86.1699 94.2222 85.4488
lowerback 5.31582 -1.07111 5.7339
upperback 0.564718 -1.06719 0.191117
thorax -2.50158 -0.581141 -2.94123
lowerneck -5.85611 0.493154 2.10686
upperneck 11.4784 0.393567 1.28937
head 4.88579 0.398523 0.0907098
rclavicle 7.45443e-016 -1.17283e-014
rhumerus -35.9378 -6.80238 -84.8477
rradius 25.8252
rwrist 2.65312
rhand -21.7804 -10.4182
rfingers 7.12502
rthumb 4.62079 -40.3478
lclavicle 7.45443e-016 -1.17283e-014
lhumerus -37.1749 10.4951 78.7036
lradius 21.6432
lwrist 15.3148
lhand -16.9303 11.708
lfingers 7.12502
lthumb 9.30263 41.4827
rfemur 1.94342 2.36653 28.1574
rtibia 25.4457
rfoot 1.91487 -8.45646
rtoes -9.27124
lfemur -20.8669 6.55391 -15.3043
ltibia 19.6271
lfoot 12.0662 -1.06944
ltoes -17.3189
820
root -23.8051 18.0338 -3.86183 84.6084 94.2126 83.9736
lowerback 5.30266 -1.0781 5.6783
upperback 0.586608 -1.08182 0.175645
thorax -2.47214 -0.586727 -2.92532
lowerneck -5.86561 0.469808 2.08119
upperneck 11.536 0.36089 1.3243
head 4.90884 0.38457 0.105636
rclavicle -4.02539e-015 1.09332e-014
rhumerus -36.0397 -7.03067 -84.6837
rradius 25.5859
rwrist 2.90041
rhand -21.7431 -10.399
rfingers 7.12502
rthumb 4.65683 -40.3278
lclavicle -4.02539e-015 1.09332e-014
lhumerus -37.2742 10.6435 78.514
lradius 21.4986
lwrist 15.1426
lhand -16.9057 11.6911
lfingers 7.12502
lthumb 9.32637 41.4648
rfemur 1.36948 2.33728 28.2372
rtibia 26.0658
rfoot 1.68892 -8.55576
rtoes -9.04577
lfemur -20.6769 6.61031 -15.3922
ltibia 20.6755
lfoot 10.5616 -1.13804
ltoes -18.3009
821
root -23.8997 18.0329 -3.84458 83.449 94.1989 82.8876
lowerback 5.26716 -1.0758 5.63423
upperback 0.605947 -1.08505 0.154564
thorax -2.43207 -0.586626 -2.92287
lowerneck -5.83016 0.44514 2.06338
upperneck 11.9392 0.323409 1.36337
head 4.53646 0.373102 0.102931
rclavicle 2.2239e-015 3.97569e-016
rhumerus -36.1302 -7.27799 -84.5133
rradius 25.3261
rwrist 3.15162
rhand -21.7013 -10.3834
rfingers 7.12502
rthumb 4.69718 -40.3113
lclavicle 2.2239e-015 3.97569e-016
lhumerus -37.3811 10.7957 78.3214
lradius 21.362
lwrist 14.9784
lhand -16.9 11.6529
lfingers 7.12502
lthumb 9.33187 41.4264
rfemur 0.812672 2.29849 28.286
rtibia 26.6304
rfoot 1.52718 -8.59408
rtoes -8.84449
lfemur -20.5091 6.69831 -15.4911
ltibia 21.9026
lfoot 9.23428 -1.10192
ltoes -19.1218
822
root -23.9933 18.0329 -3.82877 82.5237 94.1786 82.0239
lowerback 5.22046 -1.06909 5.59171
upperback 0.619395 -1.08295 0.132052
thorax -2.3914 -0.584062 -2.92328
lowerneck -5.84195 0.423564 2.03494
upperneck 11.9926 0.29389 1.39107
head 4.5546 0.360166 0.114633
rclavicle -8.0632e-015 -2.5842e-015
rhumerus -36.2156 -7.52581 -84.338
rradius 25.0573
rwrist 3.3929
rhand -21.6533 -10.3664
rfingers 7.12502
rthumb 4.7435 -40.2933
lclavicle -8.0632e-015 -2.5842e-015
lhumerus -37.4986 10.9421 78.1385
lradius 21.2387
lwrist 14.8376
lhand -16.905 11.5829
lfingers 7.12502
lthumb 9.32704 41.3565
rfemur 0.267659 2.24781 28.3041
rtibia 27.1521
rfoot 1.41129 -8.57569
rtoes -8.66452
lfemur -20.3497 6.80205 -15.6018
ltibia 23.2761
lfoot 8.03762 -0.943234
ltoes -19.7787
823
root -24.0859 18.0329 -3.81439 81.7966 94.1503 81.3554
lowerback 5.17862 -1.05797 5.54944
upperback 0.621268 -1.07441 0.107437
thorax -2.36488 -0.578984 -2.9263
lowerneck -5.84024 0.398884 1.99907
upperneck 12.0416 0.26133 1.42001
head 4.56911 0.345413 0.127712
rclavicle -1.14301e-015 -8.94531e-015
rhumerus -36.308 -7.77337 -84.157
rradius 24.7822
rwrist 3.62223
rhand -21.5996 -10.3493
rfingers 7.12502
rthumb 4.79538 -40.275
lclavicle -1.14301e-015 -8.94531e-015
lhumerus -37.6335 11.0756 77.9635
lradius 21.1213
lwrist 14.7096
lhand -16.9178 11.505
lfingers 7.12502
lthumb 9.31463 41.2793
rfemur -0.260369 2.18756 28.2925
rtibia 27.6442
rfoot 1.32431 -8.49753
rtoes -8.46903
lfemur -20.1731 6.90603 -15.7188
ltibia 24.7611
lfoot 6.93301 -0.652692
ltoes -20.315
824
root -24.1776 18.0324 -3.8012 81.1476 94.1113 80.7652
lowerback 5.14672 -1.0467 5.49794
upperback 0.612455 -1.06525 0.08352
thorax -2.35476 -0.574199 -2.92322
lowerneck -5.8332 0.375276 1.96223
upperneck 12.0947 0.231522 1.44056
head 4.58401 0.331549 0.13852
rclavicle 1.09829e-014 -3.57812e-015
rhumerus -36.407 -8.00716 -83.9712
rradius 24.507
rwrist 3.83769
rhand -21.5347 -10.3363
rfingers 7.12502
rthumb 4.8581 -40.2606
lclavicle 1.09829e-014 -3.57812e-015
lhumerus -37.7779 11.2056 77.7989
lradius 21.0033
lwrist 14.5921
lhand -16.9214 11.428
lfingers 7.12502
lthumb 9.31115 41.2024
rfemur -0.772831 2.11905 28.2502
rtibia 28.1175
rfoot 1.25504 -8.35836
rtoes -8.28128
lfemur -19.9659 6.99455 -15.8393
ltibia 26.3254
lfoot 5.90638 -0.241334
ltoes -20.7208
825
root -24.2685 18.0309 -3.78889 80.505 94.0624 80.1867
lowerback 5.13297 -1.03589 5.43587
upperback 0.588918 -1.05578 0.0591402
thorax -2.36983 -0.570167 -2.9143
lowerneck -5.80709 0.351758 1.92756
upperneck 12.1538 0.203285 1.454
head 4.59757 0.318293 0.146851
rclavicle -7.1811e-015 -9.93923e-016
rhumerus -36.527 -8.22504 -83.7833
rradius 24.2413
rwrist 4.0396
rhand -21.4588 -10.346
rfingers 7.12502
rthumb 4.93136 -40.2686
lclavicle -7.1811e-015 -9.93923e-016
lhumerus -37.9382 11.3117 77.6486
lradius 20.8852
lwrist 14.4963
lhand -16.9105 11.3554
lfingers 7.12502
lthumb 9.32171 41.1293
rfemur -1.2658 2.05073 28.1822
rtibia 28.5791
rfoot 1.18923 -8.16454
rtoes -8.0898
lfemur -19.7169 7.06428 -15.9579
ltibia 27.9394
lfoot 4.97216 0.21103
ltoes -21.1346
826
root -24.3584 18.0284 -3.77719 79.9153 94.0006 79.6674
lowerback 5.13443 -1.0253 5.35871
upperback 0.555532 -1.04632 0.0342898
thorax -2.40337 -0.566685 -2.89709
lowerneck -5.77647 0.330762 1.89699
upperneck 12.2274 0.179262 1.45934
head 4.61484 0.307118 0.152291
rclavicle -4.98204e-015 0
rhumerus -36.6574 -8.42614 -83.5963
rradius 23.9849
rwrist 4.23724
rhand -21.3793 -10.4024
rfingers 7.12502
rthumb 5.00807 -40.3232
lclavicle -4.98204e-015 0
lhumerus -38.098 11.4171 77.5017
lradius 20.748
lwrist 14.4014
lhand -16.8873 11.2949
lfingers 7.12502
lthumb 9.34405 41.0678
rfemur -1.74236 1.99709 28.0903
rtibia 29.0357
rfoot 1.12476 -7.92433
rtoes -7.92703
lfemur -19.4185 7.12763 -16.0732
ltibia 29.5758
lfoot 4.13796 0.664141
ltoes -21.5503
